<svg xmlns="http://www.w3.org/2000/svg" version="1.1" xmlns:xlink="http://www.w3.org/1999/xlink" xmlns:svgjs="http://svgjs.dev/svgjs" width="1000" height="366" viewBox="0 0 1000 366"><g transform="matrix(1,0,0,1,-0.6060606060606233,0.13209942298561828)"><svg viewBox="0 0 396 145" data-background-color="#ffffff" preserveAspectRatio="xMidYMid meet" height="366" width="1000" xmlns="http://www.w3.org/2000/svg" xmlns:xlink="http://www.w3.org/1999/xlink"><g id="tight-bounds" transform="matrix(1,0,0,1,0.2400000000000091,-0.05233447085495868)"><svg viewBox="0 0 395.52 145.10466858125375" height="145.10466858125375" width="395.52"><g><svg viewBox="0 0 685.2158067229698 251.38554950741542" height="145.10466858125375" width="395.52"><g transform="matrix(1,0,0,1,287.7182067229698,0)"><svg viewBox="0 0 397.4975999999999 251.38554950741542" height="251.38554950741542" width="397.4975999999999"><g><svg viewBox="0 0 397.4975999999999 251.38554950741542" height="251.38554950741542" width="397.4975999999999" id="textblock"><g><rect width="397.4975999999999" height="16.068711550574477" x="0" y="197.11194109178652" fill="#ea3c12" opacity="1" stroke-width="0" stroke="transparent" fill-opacity="1" class="rect-o-0" data-fill-palette-color="primary" rx="1%" id="o-0" data-palette-color="#ea3c12"></rect></g><g transform="matrix(1,0,0,1,0.9887999999999693,0)"><svg viewBox="0 0 395.52 178.18283062645008" height="178.18283062645008" width="395.52"><g transform="matrix(1,0,0,1,0,0)"><svg width="395.52" viewBox="-10.5 -36.150001525878906 129.29000854492188 58.25" height="178.18283062645008" data-palette-color="#ea3c12"><path d="M17.9-31.5L17.95-31Q17.95-28.35 16.63-25.25 15.3-22.15 13.4-19.43 11.5-16.7 9.6-14.1L9.6-14.1Q5.05-7.95 5.05-5L5.05-5Q5.05-4.1 5.58-3.53 6.1-2.95 7.05-2.95L7.05-2.95Q11.8-2.95 23.65-15.9L23.65-15.9Q25.4-17.75 26.3-19.2L26.3-19.2 26.6-19.6Q26.95-20.15 27.3-20.15L27.3-20.15Q28.5-20 28.5-19.4L28.5-19.4Q28.5-19.2 28.35-18.95L28.35-18.95 26.05-15.25Q25.7-14.7 21.85-8.4 18-2.1 15.75 1.45L15.75 1.45Q18.45 0.8 21.2 0.8 23.95 0.8 24.05 2.35L24.05 2.35Q24.05 3.2 23.35 3.75L23.35 3.75Q22.2 4.65 21.55 4.65 20.9 4.65 20.9 4.5L20.9 4.5Q20.9 4.35 21.3 4.15 21.7 3.95 21.88 3.83 22.05 3.7 22.25 3.55L22.25 3.55Q22.7 3.2 22.7 2.9L22.7 2.9Q22.7 2.2 20.2 2.2 17.7 2.2 14.75 3L14.75 3Q2.55 22.1-1.95 22.1L-1.95 22.1Q-3.25 22.1-3.25 20.5L-3.25 20.5Q-3.25 16.95 1.63 10.93 6.5 4.9 13.3 2.25L13.3 2.25Q15.2-0.95 18.32-6.43 21.45-11.9 22.3-13.3L22.3-13.3Q18.7-9.25 14.4-5.8L14.4-5.8Q12.55-4.25 10.23-3 7.9-1.75 6.2-1.75L6.2-1.75Q5.55-1.75 4.98-1.9 4.4-2.05 3.78-2.78 3.15-3.5 3.15-5.23 3.15-6.95 4.45-9.68 5.75-12.4 7.63-14.98 9.5-17.55 11.4-20.1L11.4-20.1Q15.85-26.1 15.85-29.7L15.85-29.7Q15.85-32.55 14.48-33.85 13.1-35.15 9.9-35.15 6.7-35.15 3.18-33.68-0.35-32.2-2.88-30.08-5.4-27.95-7-25.68-8.6-23.4-8.6-21.75L-8.6-21.75Q-8.6-19.45-5.6-19.45L-5.6-19.45Q1.75-19.45 8.6-28.65L8.6-28.65Q8.85-29.15 9.08-29.15 9.3-29.15 9.3-28.55 9.3-27.95 7.83-26.1 6.35-24.25 4.2-22.25 2.05-20.25-0.85-18.75-3.75-17.25-6.2-17.25L-6.2-17.25Q-10.5-17.25-10.5-20.5L-10.5-20.5Q-10.5-22.55-8.7-25.23-6.9-27.9-4-30.35-1.1-32.8 3.08-34.48 7.25-36.15 11.5-36.15L11.5-36.15Q13.3-36.15 14.63-35.63 15.95-35.1 16.6-34.35L16.6-34.35Q17.75-32.9 17.9-31.5L17.9-31.5ZM-1.5 18.8L-1.5 18.8Q-1.5 19.85-0.75 19.85L-0.75 19.85Q2.7 19.85 12.35 3.85L12.35 3.85Q6.4 6.25 2.45 11.15-1.5 16.05-1.5 18.8ZM29.5-0.5L29.5-0.5Q29.5-1.05 30.32-2.35 31.15-3.65 31.42-4 31.7-4.35 32.25-5.1L32.25-5.1Q26.3 0.3 24.05 0.3L24.05 0.3Q22.8 0.3 22.8-0.75L22.8-0.75Q22.8-2.25 27.85-9.2L27.85-9.2Q28.1-9.6 28.5-9.6L28.5-9.6Q29.65-9.25 29.65-9.1 29.65-8.95 29.35-8.5L29.35-8.5Q25.05-2.7 25.05-1.98 25.05-1.25 25.55-1.25L25.55-1.25Q26.95-1.25 30.52-4.48 34.1-7.7 35.7-9.8L35.7-9.8Q35.9-10.15 36.35-10.15L36.35-10.15Q37.35-9.95 37.35-9.75L37.35-9.75Q36.8-8.95 35.85-7.65 34.9-6.35 34.3-5.53 33.7-4.7 33.05-3.75L33.05-3.75Q31.8-2.05 31.55-1.25L31.55-1.25Q31.55-0.75 32.37-0.75 33.2-0.75 35.3-1.73 37.4-2.7 39-3.7L39-3.7 40.6-4.7Q40.65-4.6 40.65-4.3 40.65-4 40.2-3.8L40.2-3.8Q33.45 0.8 30.8 0.8L30.8 0.8Q29.5 0.8 29.5-0.5ZM40.75-4.15L40.75-4.15 39.5-3.35Q39.3-3.25 39.12-3.25 38.95-3.25 38.95-3.45 38.95-3.65 39.1-3.8L39.1-3.8Q39.5-4 41.62-5.63 43.75-7.25 44.37-7.25 45-7.25 45-6.53 45-5.8 43.47-3.55 41.95-1.3 41.95-1.13 41.95-0.95 42.05-0.95L42.05-0.95Q42.5-0.95 47.25-4.9 52-8.85 52.4-8.85L52.4-8.85Q53.15-8.85 53.15-8.15L53.15-8.15Q53.15-7.7 51.42-5.08 49.7-2.45 49.15-1.5L49.15-1.5Q49.2-1.45 49.37-1.45 49.55-1.45 51.4-2.78 53.25-4.1 55.25-5.6 57.25-7.1 57.59-7.33 57.95-7.55 58.25-7.55L58.25-7.55Q58.85-7.5 58.85-6.85L58.85-6.85Q58.85-6.6 57.12-4.23 55.4-1.85 55.4-1.2L55.4-1.2Q55.4-0.75 56.47-0.75 57.55-0.75 59.65-1.73 61.75-2.7 63.35-3.7L63.35-3.7 64.95-4.7Q65-4.6 65-4.3 65-4 64.55-3.8L64.55-3.8Q57.8 0.8 55.15 0.8L55.15 0.8Q53.6 0.8 53.6-0.4L53.6-0.4Q53.6-1.55 54.27-2.6 54.95-3.65 55.45-4.38 55.95-5.1 55.95-5.15L55.95-5.15Q49.25-0.25 48.22 0.23 47.2 0.7 46.75 0.7 46.3 0.7 46.3-0.3L46.3-0.3 49.9-5.9Q49.3-5.65 46-3.15 42.7-0.65 40.85 1L40.85 1Q40.15 1.85 39.5 1.85L39.5 1.85Q38.85 1.7 38.85 1L38.85 1Q38.85 0.8 40.67-1.95 42.5-4.7 42.5-4.93 42.5-5.15 42.37-5.15 42.25-5.15 41.95-4.98 41.65-4.8 41.25-4.5 40.85-4.2 40.75-4.15ZM65.14-4.15L65.14-4.15 63.89-3.35Q63.69-3.25 63.52-3.25 63.34-3.25 63.34-3.45 63.34-3.65 63.49-3.8L63.49-3.8Q63.89-4 66.02-5.63 68.14-7.25 68.77-7.25 69.39-7.25 69.39-6.53 69.39-5.8 67.87-3.55 66.34-1.3 66.34-1.13 66.34-0.95 66.44-0.95L66.44-0.95Q66.89-0.95 71.64-4.9 76.39-8.85 76.79-8.85L76.79-8.85Q77.54-8.85 77.54-8.15L77.54-8.15Q77.54-7.7 75.82-5.08 74.09-2.45 73.54-1.5L73.54-1.5Q73.59-1.45 73.77-1.45 73.94-1.45 75.79-2.78 77.64-4.1 79.64-5.6 81.64-7.1 81.99-7.33 82.34-7.55 82.64-7.55L82.64-7.55Q83.24-7.5 83.24-6.85L83.24-6.85Q83.24-6.6 81.52-4.23 79.79-1.85 79.79-1.2L79.79-1.2Q79.79-0.75 80.87-0.75 81.94-0.75 84.04-1.73 86.14-2.7 87.74-3.7L87.74-3.7 89.34-4.7Q89.39-4.6 89.39-4.3 89.39-4 88.94-3.8L88.94-3.8Q82.19 0.8 79.54 0.8L79.54 0.8Q77.99 0.8 77.99-0.4L77.99-0.4Q77.99-1.55 78.67-2.6 79.34-3.65 79.84-4.38 80.34-5.1 80.34-5.15L80.34-5.15Q73.64-0.25 72.62 0.23 71.59 0.7 71.14 0.7 70.69 0.7 70.69-0.3L70.69-0.3 74.29-5.9Q73.69-5.65 70.39-3.15 67.09-0.65 65.24 1L65.24 1Q64.54 1.85 63.89 1.85L63.89 1.85Q63.24 1.7 63.24 1L63.24 1Q63.24 0.8 65.07-1.95 66.89-4.7 66.89-4.93 66.89-5.15 66.77-5.15 66.64-5.15 66.34-4.98 66.04-4.8 65.64-4.5 65.24-4.2 65.14-4.15ZM96.89-15.25L96.89-15.25Q97.64-15.25 97.64-14.5 97.64-13.75 96.94-12.98 96.24-12.2 95.39-12.2L95.39-12.2Q94.69-12.2 94.69-13.18 94.69-14.15 95.49-14.7 96.29-15.25 96.89-15.25ZM92.19-8.65L92.19-8.65Q92.44-9.05 92.89-9.05 93.34-9.05 93.79-8.6L93.79-8.6Q93.79-8.4 93.14-7.7 92.49-7 90.94-4.58 89.39-2.15 89.39-1.35L89.39-1.35Q89.39-0.85 90.14-0.75L90.14-0.75Q91.14-0.75 93.24-1.73 95.34-2.7 96.94-3.7L96.94-3.7 98.54-4.7Q98.59-4.6 98.59-4.3 98.59-4 98.14-3.8L98.14-3.8Q91.39 0.8 88.74 0.8L88.74 0.8Q87.44 0.8 87.44-0.5 87.44-1.8 88.87-4.13 90.29-6.45 92.19-8.65ZM118.54-32.15L118.79-31.95Q118.79-31.8 115.89-26.6L115.89-26.6Q106.94-10.55 104.59-6L104.59-6Q103.29-4.35 102.79-4.35L102.79-4.35Q102.49-4.35 102.49-4.67 102.49-5 105.89-11.48 109.29-17.95 112.66-24.38 116.04-30.8 115.94-30.85L115.94-30.85Q116.24-31.35 116.94-31.6L116.94-31.6 118.54-32.15ZM102.84-1.3Q102.84-0.75 102.36-0.25 101.89 0.25 101.31 0.25 100.74 0.25 100.46 0 100.19-0.25 100.16-0.85 100.14-1.45 100.69-1.85 101.24-2.25 101.74-2.25L101.74-2.25Q102.84-2.25 102.84-1.3L102.84-1.3Z" opacity="1" transform="matrix(1,0,0,1,0,0)" fill="#ea3c12" class="undefined-text-0" data-fill-palette-color="primary" id="text-0"></path></svg></g></svg></g><g transform="matrix(1,0,0,1,0,232.10976310769743)"><svg viewBox="0 0 232.209792 19.275786399718015" height="19.275786399718015" width="232.209792"><g transform="matrix(1,0,0,1,0,0)"><svg width="232.209792" viewBox="4.050000190734863 -40 567.3500366210938 47.099998474121094" height="19.275786399718015" data-palette-color="#ea3c12"><path d="M9.95-34.65L9.95-2.1Q9.95 0.3 7 0.3L7 0.3Q4.05 0.3 4.05-2.1L4.05-2.1 4.05-36.7Q4.05-37.85 4.7-38.78 5.35-39.7 7.2-39.7L7.2-39.7 24.2-39.7Q26-39.7 26.1-37.2L26.1-37.2Q26.2-34.65 24.2-34.65L24.2-34.65 9.95-34.65ZM22.75-20.65L22.75-20.65Q22.75-19.8 22.43-19.03 22.1-18.25 21.53-17.7 20.95-17.15 20.2-16.82 19.45-16.5 18.55-16.5L18.55-16.5Q16.85-16.5 15.65-17.7 14.45-18.9 14.45-20.65L14.45-20.65Q14.45-22.4 15.65-23.6 16.85-24.8 18.55-24.8L18.55-24.8Q19.45-24.8 20.2-24.48 20.95-24.15 21.53-23.58 22.1-23 22.43-22.25 22.75-21.5 22.75-20.65ZM39.1-30.1L47.1-30.1Q48.4-30.1 49.77-29.55 51.15-29 52.45-28.15L52.45-28.15 52.4-28.15Q53.7-27.2 54.4-25.68 55.1-24.15 55.1-22.15L55.1-22.15 55.1-7.95Q55.1-3.85 52.4-1.9L52.4-1.9Q49.75 0 47.1 0L47.1 0 39.1 0Q37.8 0 36.45-0.45 35.1-0.9 33.8-1.9L33.8-1.9Q31.1-3.8 31.1-7.95L31.1-7.95 31.1-22.15Q31.1-24.15 31.8-25.68 32.5-27.2 33.8-28.15L33.8-28.15 33.75-28.15Q35-29 36.4-29.55 37.8-30.1 39.1-30.1L39.1-30.1ZM40-4.7L46.2-4.7Q48.05-4.7 48.82-5.75 49.6-6.8 49.6-8L49.6-8 49.6-22.1Q49.6-23.35 48.82-24.38 48.05-25.4 46.2-25.4L46.2-25.4 40-25.4Q38.15-25.4 37.37-24.38 36.6-23.35 36.6-22.1L36.6-22.1 36.6-8Q36.6-6.8 37.37-5.75 38.15-4.7 40-4.7L40-4.7ZM69.39-30.1L77.39-30.1Q78.69-30.1 80.07-29.55 81.44-29 82.75-28.15L82.75-28.15 82.69-28.15Q84-27.2 84.69-25.68 85.39-24.15 85.39-22.15L85.39-22.15 85.39-7.95Q85.39-3.85 82.69-1.9L82.69-1.9Q80.05 0 77.39 0L77.39 0 69.39 0Q68.09 0 66.75-0.45 65.39-0.9 64.09-1.9L64.09-1.9Q61.39-3.8 61.39-7.95L61.39-7.95 61.39-22.15Q61.39-24.15 62.09-25.68 62.8-27.2 64.09-28.15L64.09-28.15 64.05-28.15Q65.3-29 66.69-29.55 68.09-30.1 69.39-30.1L69.39-30.1ZM70.3-4.7L76.5-4.7Q78.34-4.7 79.12-5.75 79.89-6.8 79.89-8L79.89-8 79.89-22.1Q79.89-23.35 79.12-24.38 78.34-25.4 76.5-25.4L76.5-25.4 70.3-25.4Q68.44-25.4 67.67-24.38 66.89-23.35 66.89-22.1L66.89-22.1 66.89-8Q66.89-6.8 67.67-5.75 68.44-4.7 70.3-4.7L70.3-4.7ZM110.24-1.75L110.24-25.4 100.59-25.4Q98.54-25.4 97.89-24.2L97.89-24.2Q97.19-23.15 97.19-21.75L97.19-21.75 97.19-7.35Q97.19-6.05 97.99-5.38 98.79-4.7 100.64-4.7L100.64-4.7 105.79-4.7Q107.59-4.7 107.59-2.35L107.59-2.35Q107.59-1.35 107.17-0.68 106.74 0 105.79 0L105.79 0 99.74 0Q96.59 0 94.14-1.6L94.14-1.6Q91.69-3.1 91.69-7.3L91.69-7.3 91.69-22.2Q91.69-24.25 92.34-25.75 92.99-27.25 94.39-28.2L94.39-28.2Q97.04-30.1 99.69-30.1L99.69-30.1 110.24-30.1 110.24-37.6Q110.24-40 112.99-40L112.99-40Q115.74-40 115.74-37.6L115.74-37.6 115.74-2.1Q115.74 0.3 112.99 0.3L112.99 0.3Q111.94 0.3 111.09-0.08 110.24-0.45 110.24-1.75L110.24-1.75ZM158.54-8.4L158.54-14.75Q158.54-15.9 157.69-16.98 156.84-18.05 154.69-18.2L154.69-18.2Q153.29-16.5 151.29-16.5L151.29-16.5Q149.59-16.5 148.39-17.7 147.19-18.9 147.19-20.65L147.19-20.65Q147.19-22.4 148.39-23.6 149.59-24.8 151.29-24.8L151.29-24.8Q152.19-24.8 153.06-24.3 153.94-23.8 154.64-23.1L154.64-23.1Q155.74-23.15 156.34-23.45 156.94-23.75 157.21-24.18 157.49-24.6 157.54-25.15 157.59-25.7 157.59-26.25L157.59-26.25 157.59-31.3Q157.59-32.55 156.81-33.6 156.04-34.65 154.19-34.65L154.19-34.65 143.74-34.65 143.69-1.65Q143.69-0.65 142.76-0.13 141.84 0.4 140.74 0.4L140.74 0.4Q137.79 0.4 137.79-2L137.79-2 137.79-36.7Q137.79-38.5 138.71-39.1 139.64-39.7 140.94-39.7L140.94-39.7 155.44-39.7Q156.74-39.7 158.21-39.2 159.69-38.7 160.99-37.85L160.99-37.85 160.94-37.85Q162.24-36.9 162.86-35.35 163.49-33.8 163.49-31.75L163.49-31.75 163.49-26.1Q163.49-24.1 162.64-22.83 161.79-21.55 160.84-20.8L160.84-20.8Q161.49-20.4 162.09-19.98 162.69-19.55 163.09-19.05L163.09-19.05Q163.74-18.35 164.11-17.4 164.49-16.45 164.49-15.15L164.49-15.15 164.49-8Q164.49-3.9 161.29-1.95L161.29-1.95Q159.69-0.95 158.26-0.45 156.84 0.05 155.44 0.05L155.44 0.05 148.04 0.05Q147.19 0.05 146.71-0.65 146.24-1.35 146.24-2.5L146.24-2.5Q146.24-5 148.34-5L148.34-5 155.19-5Q157.04-5 157.79-6.05 158.54-7.1 158.54-8.4L158.54-8.4ZM176.94-22.75L176.94-2.1Q176.94 0.3 174.19 0.3L174.19 0.3Q171.34 0.3 171.34-2.1L171.34-2.1 171.34-22.8Q171.34-26.9 173.79-28.5L173.79-28.5Q176.24-30.1 179.44-30.1L179.44-30.1 185.14-30.1Q186.99-30.1 186.99-27.75L186.99-27.75Q187.09-25.4 185.14-25.4L185.14-25.4 179.84-25.4Q178.04-25.4 177.49-24.7 176.94-24 176.94-22.75L176.94-22.75ZM199.23-30.1L207.23-30.1Q208.53-30.1 209.91-29.55 211.28-29 212.58-28.15L212.58-28.15 212.53-28.15Q213.83-27.2 214.53-25.68 215.23-24.15 215.23-22.15L215.23-22.15 215.23-7.95Q215.23-3.85 212.53-1.9L212.53-1.9Q209.88 0 207.23 0L207.23 0 199.23 0Q197.93 0 196.58-0.45 195.23-0.9 193.93-1.9L193.93-1.9Q191.23-3.8 191.23-7.95L191.23-7.95 191.23-22.15Q191.23-24.15 191.93-25.68 192.63-27.2 193.93-28.15L193.93-28.15 193.88-28.15Q195.13-29 196.53-29.55 197.93-30.1 199.23-30.1L199.23-30.1ZM200.13-4.7L206.33-4.7Q208.18-4.7 208.96-5.75 209.73-6.8 209.73-8L209.73-8 209.73-22.1Q209.73-23.35 208.96-24.38 208.18-25.4 206.33-25.4L206.33-25.4 200.13-25.4Q198.28-25.4 197.51-24.38 196.73-23.35 196.73-22.1L196.73-22.1 196.73-8Q196.73-6.8 197.51-5.75 198.28-4.7 200.13-4.7L200.13-4.7ZM245.58-28L245.58-7.95Q245.58-5.95 244.88-4.4 244.18-2.85 242.88-1.9L242.88-1.9 242.93-1.9Q241.68-1.05 240.28-0.53 238.88 0 237.58 0L237.58 0 229.53 0Q228.28 0 226.86-0.53 225.43-1.05 224.18-1.9L224.18-1.9 224.23-1.9Q222.93-2.85 222.23-4.4 221.53-5.95 221.53-7.95L221.53-7.95 221.53-28Q221.53-30.4 224.28-30.4L224.28-30.4Q227.03-30.4 227.03-28L227.03-28 227.03-8.35Q227.03-6.95 227.73-5.9L227.73-5.9Q228.38-4.7 230.43-4.7L230.43-4.7 236.68-4.7Q238.68-4.7 239.33-5.9L239.33-5.9 239.28-5.85Q240.08-7.05 240.08-8.35L240.08-8.35 240.08-28Q240.08-30.4 242.83-30.4L242.83-30.4Q245.58-30.4 245.58-28L245.58-28ZM265.93-3.5L259.88-3.5Q258.58-3.5 257.2-3.95 255.83-4.4 254.53-5.25L254.53-5.25Q251.83-7 251.83-11.15L251.83-11.15 251.83-22.45Q251.83-24.55 252.55-26.05 253.28-27.55 254.53-28.4L254.53-28.4Q255.83-29.2 257.18-29.65 258.53-30.1 259.83-30.1L259.83-30.1 268.23-30.1Q269.48-30.1 270.83-29.55 272.18-29 273.33-28.15L273.33-28.15Q274.48-27.2 275.18-25.65 275.88-24.1 275.88-22.15L275.88-22.15 275.88-0.95Q275.88 1.15 275.2 2.63 274.53 4.1 273.33 5.1L273.33 5.1Q272.18 6.05 270.85 6.58 269.53 7.1 268.23 7.1L268.23 7.1 259.83 7.1Q257.18 7.1 254.48 5.55L254.48 5.55Q253.08 4.75 252.45 3.5 251.83 2.25 251.83 0.6L251.83 0.6 251.83 0Q251.83-1 252.48-1.6 253.13-2.2 254.53-2.2L254.53-2.2Q257.33-1.9 257.33 0L257.33 0 257.33 0.55Q257.33 1.1 258.1 1.75 258.88 2.4 260.73 2.4L260.73 2.4 266.98 2.4Q268.83 2.4 269.6 1.35 270.38 0.3 270.38-1L270.38-1 270.38-22.1Q270.38-23.35 269.6-24.38 268.83-25.4 266.98-25.4L266.98-25.4 260.73-25.4Q258.88-25.4 258.1-24.38 257.33-23.35 257.33-22.1L257.33-22.1 257.33-11.55Q257.33-10.3 258.1-9.22 258.88-8.15 260.73-8.15L260.73-8.15 265.93-8.15Q267.73-8.15 267.73-5.85L267.73-5.85Q267.73-4.8 267.3-4.15 266.88-3.5 265.93-3.5L265.93-3.5ZM288.08-25.4L288.08-2.1Q288.08 0.3 285.33 0.3L285.33 0.3Q282.58 0.3 282.58-2.1L282.58-2.1 282.58-37.6Q282.58-40 285.33-40L285.33-40Q288.08-40 288.08-37.6L288.08-37.6 288.08-30.1 298.63-30.1Q301.18-30.1 303.93-28.2L303.93-28.2Q306.63-26.3 306.63-22.2L306.63-22.2 306.63-2.1Q306.63 0.3 303.88 0.3L303.88 0.3Q301.13 0.3 301.13-2.1L301.13-2.1 301.13-21.75Q301.13-23.05 300.33-24.25L300.33-24.25 300.38-24.2Q299.73-25.4 297.73-25.4L297.73-25.4 288.08-25.4ZM323.92-25.4L319.77-25.4 319.77-7.2Q319.77-5.9 320.32-5.2 320.87-4.5 322.67-4.5L322.67-4.5 323.97-4.5Q325.92-4.5 325.82-2.2L325.82-2.2Q325.82 0.15 323.97 0.15L323.97 0.15 322.32 0.15Q320.72 0.15 319.32-0.28 317.92-0.7 316.62-1.5L316.62-1.5 316.62-1.45Q314.17-3.05 314.17-7.15L314.17-7.15 314.17-25.4 312.22-25.4Q310.42-25.4 310.32-27.75L310.32-27.75Q310.32-30.1 312.22-30.1L312.22-30.1 314.17-30.1 314.17-35.45Q314.17-37.85 317.02-37.85L317.02-37.85Q319.77-37.85 319.77-35.45L319.77-35.45 319.77-30.1 323.92-30.1Q325.87-30.1 325.77-27.75L325.77-27.75Q325.77-25.4 323.92-25.4L323.92-25.4ZM358.97-34.65L358.97-2Q358.97 0.4 355.97 0.4L355.97 0.4Q353.02 0.4 353.02-2L353.02-2 353.02-34.65 344.27-34.65Q342.47-34.65 342.37-37.2L342.37-37.2Q342.37-39.7 344.27-39.7L344.27-39.7 367.72-39.7Q369.62-39.7 369.52-37.2L369.52-37.2Q369.52-34.65 367.72-34.65L367.72-34.65 358.97-34.65ZM381.52-30.1L389.52-30.1Q390.82-30.1 392.19-29.55 393.57-29 394.87-28.15L394.87-28.15 394.82-28.15Q396.12-27.2 396.82-25.68 397.52-24.15 397.52-22.15L397.52-22.15 397.52-7.95Q397.52-3.85 394.82-1.9L394.82-1.9Q392.17 0 389.52 0L389.52 0 381.52 0Q380.22 0 378.87-0.45 377.52-0.9 376.22-1.9L376.22-1.9Q373.52-3.8 373.52-7.95L373.52-7.95 373.52-22.15Q373.52-24.15 374.22-25.68 374.92-27.2 376.22-28.15L376.22-28.15 376.17-28.15Q377.42-29 378.82-29.55 380.22-30.1 381.52-30.1L381.52-30.1ZM382.42-4.7L388.62-4.7Q390.47-4.7 391.24-5.75 392.02-6.8 392.02-8L392.02-8 392.02-22.1Q392.02-23.35 391.24-24.38 390.47-25.4 388.62-25.4L388.62-25.4 382.42-25.4Q380.57-25.4 379.79-24.38 379.02-23.35 379.02-22.1L379.02-22.1 379.02-8Q379.02-6.8 379.79-5.75 380.57-4.7 382.42-4.7L382.42-4.7ZM417.91-3.5L411.86-3.5Q410.56-3.5 409.19-3.95 407.81-4.4 406.51-5.25L406.51-5.25Q403.81-7 403.81-11.15L403.81-11.15 403.81-22.45Q403.81-24.55 404.54-26.05 405.26-27.55 406.51-28.4L406.51-28.4Q407.81-29.2 409.16-29.65 410.51-30.1 411.81-30.1L411.81-30.1 420.21-30.1Q421.46-30.1 422.81-29.55 424.16-29 425.31-28.15L425.31-28.15Q426.46-27.2 427.16-25.65 427.86-24.1 427.86-22.15L427.86-22.15 427.86-0.95Q427.86 1.15 427.19 2.63 426.51 4.1 425.31 5.1L425.31 5.1Q424.16 6.05 422.84 6.58 421.51 7.1 420.21 7.1L420.21 7.1 411.81 7.1Q409.16 7.1 406.46 5.55L406.46 5.55Q405.06 4.75 404.44 3.5 403.81 2.25 403.81 0.6L403.81 0.6 403.81 0Q403.81-1 404.46-1.6 405.11-2.2 406.51-2.2L406.51-2.2Q409.31-1.9 409.31 0L409.31 0 409.31 0.55Q409.31 1.1 410.09 1.75 410.86 2.4 412.71 2.4L412.71 2.4 418.96 2.4Q420.81 2.4 421.59 1.35 422.36 0.3 422.36-1L422.36-1 422.36-22.1Q422.36-23.35 421.59-24.38 420.81-25.4 418.96-25.4L418.96-25.4 412.71-25.4Q410.86-25.4 410.09-24.38 409.31-23.35 409.31-22.1L409.31-22.1 409.31-11.55Q409.31-10.3 410.09-9.22 410.86-8.15 412.71-8.15L412.71-8.15 417.91-8.15Q419.71-8.15 419.71-5.85L419.71-5.85Q419.71-4.8 419.29-4.15 418.86-3.5 417.91-3.5L417.91-3.5ZM440.06-22.15L440.06-8Q440.06-6.8 440.84-5.75 441.61-4.7 443.46-4.7L443.46-4.7 449.71-4.7Q451.56-4.7 452.34-5.63 453.11-6.55 453.11-7.75L453.11-7.75 453.11-8.3Q453.11-10.65 455.86-10.65L455.86-10.65Q458.61-10.65 458.61-8.3L458.61-8.3 458.61-7.7Q458.61-5.6 457.94-4.25 457.26-2.9 455.91-1.9L455.91-1.9Q453.26 0 450.61 0L450.61 0 442.21 0Q439.56 0 437.06-1.9L437.06-1.9Q435.86-2.9 435.21-4.42 434.56-5.95 434.56-7.95L434.56-7.95 434.56-22.2Q434.56-26.25 437.06-28.2L437.06-28.2Q438.31-29.1 439.64-29.63 440.96-30.15 442.21-30.15L442.21-30.15 450.61-30.15Q451.81-30.15 453.26-29.68 454.71-29.2 455.96-28.4L455.96-28.4Q457.16-27.55 457.89-26.05 458.61-24.55 458.61-22.5L458.61-22.5 458.61-15.75Q458.61-14.6 457.94-13.7 457.26-12.8 455.46-12.8L455.46-12.8 444.66-12.8Q442.86-12.8 442.76-15.15L442.76-15.15Q442.76-17.5 444.66-17.5L444.66-17.5 453.16-17.5 453.11-22.15Q453.11-23.4 452.34-24.43 451.56-25.45 449.71-25.45L449.71-25.45 443.46-25.45Q441.61-25.45 440.84-24.43 440.06-23.4 440.06-22.15L440.06-22.15ZM475.66-25.4L471.51-25.4 471.51-7.2Q471.51-5.9 472.06-5.2 472.61-4.5 474.41-4.5L474.41-4.5 475.71-4.5Q477.66-4.5 477.56-2.2L477.56-2.2Q477.56 0.15 475.71 0.15L475.71 0.15 474.06 0.15Q472.46 0.15 471.06-0.28 469.66-0.7 468.36-1.5L468.36-1.5 468.36-1.45Q465.91-3.05 465.91-7.15L465.91-7.15 465.91-25.4 463.96-25.4Q462.16-25.4 462.06-27.75L462.06-27.75Q462.06-30.1 463.96-30.1L463.96-30.1 465.91-30.1 465.91-35.45Q465.91-37.85 468.76-37.85L468.76-37.85Q471.51-37.85 471.51-35.45L471.51-35.45 471.51-30.1 475.66-30.1Q477.61-30.1 477.51-27.75L477.51-27.75Q477.51-25.4 475.66-25.4L475.66-25.4ZM487.41-25.4L487.41-2.1Q487.41 0.3 484.66 0.3L484.66 0.3Q481.91 0.3 481.91-2.1L481.91-2.1 481.91-37.6Q481.91-40 484.66-40L484.66-40Q487.41-40 487.41-37.6L487.41-37.6 487.41-30.1 497.96-30.1Q500.5-30.1 503.25-28.2L503.25-28.2Q505.96-26.3 505.96-22.2L505.96-22.2 505.96-2.1Q505.96 0.3 503.21 0.3L503.21 0.3Q500.46 0.3 500.46-2.1L500.46-2.1 500.46-21.75Q500.46-23.05 499.66-24.25L499.66-24.25 499.71-24.2Q499.06-25.4 497.06-25.4L497.06-25.4 487.41-25.4ZM518.05-22.15L518.05-8Q518.05-6.8 518.83-5.75 519.6-4.7 521.45-4.7L521.45-4.7 527.7-4.7Q529.55-4.7 530.33-5.63 531.1-6.55 531.1-7.75L531.1-7.75 531.1-8.3Q531.1-10.65 533.85-10.65L533.85-10.65Q536.6-10.65 536.6-8.3L536.6-8.3 536.6-7.7Q536.6-5.6 535.93-4.25 535.25-2.9 533.9-1.9L533.9-1.9Q531.25 0 528.6 0L528.6 0 520.2 0Q517.55 0 515.05-1.9L515.05-1.9Q513.85-2.9 513.2-4.42 512.55-5.95 512.55-7.95L512.55-7.95 512.55-22.2Q512.55-26.25 515.05-28.2L515.05-28.2Q516.3-29.1 517.63-29.63 518.95-30.15 520.2-30.15L520.2-30.15 528.6-30.15Q529.8-30.15 531.25-29.68 532.7-29.2 533.95-28.4L533.95-28.4Q535.15-27.55 535.88-26.05 536.6-24.55 536.6-22.5L536.6-22.5 536.6-15.75Q536.6-14.6 535.93-13.7 535.25-12.8 533.45-12.8L533.45-12.8 522.65-12.8Q520.85-12.8 520.75-15.15L520.75-15.15Q520.75-17.5 522.65-17.5L522.65-17.5 531.15-17.5 531.1-22.15Q531.1-23.4 530.33-24.43 529.55-25.45 527.7-25.45L527.7-25.45 521.45-25.45Q519.6-25.45 518.83-24.43 518.05-23.4 518.05-22.15L518.05-22.15ZM548.35-22.75L548.35-2.1Q548.35 0.3 545.6 0.3L545.6 0.3Q542.75 0.3 542.75-2.1L542.75-2.1 542.75-22.8Q542.75-26.9 545.2-28.5L545.2-28.5Q547.65-30.1 550.85-30.1L550.85-30.1 556.55-30.1Q558.4-30.1 558.4-27.75L558.4-27.75Q558.5-25.4 556.55-25.4L556.55-25.4 551.25-25.4Q549.45-25.4 548.9-24.7 548.35-24 548.35-22.75L548.35-22.75ZM570.3-37.55L570.3-13.05Q570.3-10.7 567.3-10.7L567.3-10.7Q564.4-10.7 564.4-13.05L564.4-13.05 564.4-37.55Q564.4-39.95 567.3-39.95L567.3-39.95Q570.3-39.95 570.3-37.55L570.3-37.55ZM571.4-4.05L571.4-4.05Q571.4-2.3 570.22-1.13 569.05 0.05 567.35 0.05L567.35 0.05Q565.65 0.05 564.47-1.13 563.3-2.3 563.3-4.05L563.3-4.05Q563.3-5.75 564.47-6.9 565.65-8.05 567.35-8.05L567.35-8.05Q569.05-8.05 570.22-6.9 571.4-5.75 571.4-4.05Z" opacity="1" transform="matrix(1,0,0,1,0,0)" fill="#ea3c12" class="undefined-text-1" data-fill-palette-color="secondary" id="text-1"></path></svg></g></svg></g></svg></g></svg></g><g transform="matrix(1,0,0,1,0,2.867568395700161)"><svg viewBox="0 0 245.65351679999995 245.6504127160151" height="245.6504127160151" width="245.65351679999995"><g><svg xmlns="http://www.w3.org/2000/svg" xmlns:xlink="http://www.w3.org/1999/xlink" version="1.1" x="0" y="0" viewBox="0 0 32.000404357910156 32" enable-background="new 0 0 32 32" xml:space="preserve" width="245.65351679999995" height="245.6504127160151" class="icon-icon-0" data-fill-palette-color="accent" id="icon-0"><g fill="#ea3c12" data-fill-palette-color="accent"><path fill="#ea3c12" d="M29.5 21h-2.691c-0.045-0.239-0.1-0.473-0.16-0.706l4.799-2.399c0.494-0.247 0.693-0.848 0.447-1.342-0.248-0.494-0.846-0.692-1.342-0.447l-4.578 2.288C24.229 14.626 20.42 12 16 12c-5.382 0-9.865 3.888-10.809 9H2.5C1.122 21 0 22.121 0 23.5c0 0.49 0.18 0.963 0.505 1.329L4 28.761V29.5C4 30.879 5.122 32 6.5 32h19c1.379 0 2.5-1.121 2.5-2.5v-0.739l3.494-3.932C31.82 24.463 32 23.99 32 23.5 32 22.121 30.879 21 29.5 21zM25.799 21h-0.562l0.498-0.25C25.754 20.834 25.781 20.915 25.799 21zM16 13c4.029 0 7.5 2.4 9.082 5.841l-0.891 0.445C22.775 16.171 19.645 14 16 14c-4.282 0-7.859 2.993-8.77 7H6.202C7.131 16.441 11.171 13 16 13zM20.576 21c-0.773-1.763-2.531-3-4.576-3s-3.802 1.237-4.576 3H10.35c0.826-2.326 3.043-4 5.65-4 2.465 0 4.588 1.496 5.508 3.627L20.764 21H20.576zM16 20c-0.883 0-1.67 0.391-2.22 1h-1.224c0.694-1.189 1.97-2 3.444-2 1.473 0 2.75 0.811 3.443 2h-1.225C17.67 20.391 16.883 20 16 20zM16 16c-3.165 0-5.842 2.112-6.705 5H8.263c0.892-3.444 4.017-6 7.737-6 3.246 0 6.043 1.948 7.295 4.734l-0.893 0.446C21.314 17.723 18.855 16 16 16zM26 28v1.5c0 0.276-0.225 0.5-0.5 0.5h-19C6.224 30 6 29.776 6 29.5V28l-4-4.5C2 23.224 2.224 23 2.5 23H5h1 1 1 1 1 1 1 1 6 1 1 1 1 1 1 1 1 2.5c0.275 0 0.5 0.224 0.5 0.5L26 28z" data-fill-palette-color="accent"></path><path fill="#ea3c12" d="M7.977 11.712c0.003 0.006 0.005 0.012 0.008 0.018 0 0 0.001 0 0.002 0C8.07 11.89 8.236 12 8.43 12c0.277 0 0.502-0.226 0.502-0.503 0-0.043-0.007-0.085-0.018-0.125 0.002-0.007 0.002-0.013 0-0.02-0.375-0.882-0.019-1.85 0.419-2.892 0.473-1.126 0.98-2.376 0.422-3.647C9.684 4.63 9.507 4.5 9.299 4.5c-0.271 0-0.49 0.22-0.49 0.49 0 0.06 0.012 0.116 0.032 0.169 0 0.002 0 0.004 0.001 0.006 0.001 0.003 0.002 0.006 0.003 0.009C8.847 5.178 8.848 5.182 8.85 5.186c0.404 0.909 0.013 1.841-0.428 2.893C7.956 9.188 7.44 10.417 7.959 11.67 7.965 11.685 7.97 11.698 7.977 11.712z" data-fill-palette-color="accent"></path><path fill="#ea3c12" d="M20.154 11.566c0.004 0.006 0.006 0.012 0.008 0.018h0.002c0.084 0.16 0.25 0.271 0.443 0.271 0.277 0 0.504-0.226 0.504-0.503 0-0.043-0.008-0.085-0.018-0.125 0.002-0.007 0.002-0.013-0.002-0.02-0.373-0.882-0.018-1.85 0.42-2.892 0.473-1.126 0.98-2.376 0.422-3.647-0.072-0.184-0.248-0.313-0.457-0.313-0.27 0-0.49 0.22-0.49 0.49 0 0.06 0.014 0.116 0.033 0.169 0 0.002 0 0.004 0 0.006 0.002 0.003 0.002 0.006 0.004 0.009 0.002 0.004 0.004 0.008 0.004 0.012 0.404 0.909 0.014 1.841-0.428 2.893-0.465 1.109-0.98 2.339-0.461 3.592C20.143 11.539 20.148 11.553 20.154 11.566z" data-fill-palette-color="accent"></path><path fill="#ea3c12" d="M15.019 7.212c0.003 0.006 0.005 0.012 0.008 0.018 0 0 0.001 0 0.002 0 0.084 0.16 0.25 0.271 0.443 0.271 0.277 0 0.502-0.226 0.502-0.503 0-0.043-0.007-0.085-0.018-0.125 0.002-0.007 0.002-0.013 0-0.02-0.375-0.882-0.019-1.85 0.419-2.892 0.473-1.126 0.98-2.376 0.422-3.647C16.725 0.13 16.549 0 16.34 0c-0.27 0-0.49 0.22-0.49 0.49 0 0.06 0.012 0.116 0.032 0.169 0 0.002 0 0.004 0.001 0.006 0.001 0.003 0.002 0.006 0.003 0.009 0.001 0.004 0.003 0.008 0.004 0.012 0.404 0.909 0.013 1.841-0.428 2.893-0.466 1.109-0.982 2.339-0.462 3.592C15.007 7.185 15.012 7.198 15.019 7.212z" data-fill-palette-color="accent"></path></g></svg></g></svg></g></svg></g><defs></defs></svg><rect width="395.52" height="145.10466858125375" fill="none" stroke="none" visibility="hidden"></rect></g></svg></g></svg>